<svg width="14" height="14" viewBox="0 0 14 14" fill="none" xmlns="http://www.w3.org/2000/svg">
<path d="M1 0.25C0.585786 0.25 0.25 0.585786 0.25 1V10C0.25 10.4142 0.585786 10.75 1 10.75H1.75V1.75H10.75V1C10.75 0.585786 10.4142 0.25 10 0.25H1Z" fill="#6D92F0"/>
<path fill-rule="evenodd" clip-rule="evenodd" d="M4 3.25C3.58579 3.25 3.25 3.58579 3.25 4V13C3.25 13.4142 3.58579 13.75 4 13.75H13C13.4142 13.75 13.75 13.4142 13.75 13V4C13.75 3.58579 13.4142 3.25 13 3.25H4ZM4.75 12.25V4.75H12.25V12.25H4.75Z" fill="#6D92F0"/>
</svg>
