<svg width="38" height="26" viewBox="0 0 38 26" fill="none" xmlns="http://www.w3.org/2000/svg">
<path fill-rule="evenodd" clip-rule="evenodd" d="M15.374 7.29492H23.2082V17.6366H15.374V7.29492Z" fill="#FF5F00"/>
<path d="M18.9553 17.6255C17.7079 18.7191 16.0606 19.384 14.2548 19.384C10.3608 19.384 7.2041 16.292 7.2041 12.4778C7.2041 8.66357 10.3608 5.57153 14.2548 5.57153C16.0606 5.57153 17.7079 6.2365 18.9553 7.33009C17.5129 8.59468 16.6051 10.4324 16.6051 12.4778C16.6051 14.5232 17.5129 16.3609 18.9553 17.6255Z" fill="#EB001B"/>
<path d="M19.0051 17.6255C20.2525 18.7191 21.8998 19.384 23.7056 19.384C27.5996 19.384 30.7563 16.292 30.7563 12.4778C30.7563 8.66357 27.5996 5.57153 23.7056 5.57153C21.8998 5.57153 20.2525 6.2365 19.0051 7.3301C20.4476 8.59468 21.3554 10.4324 21.3554 12.4778C21.3554 14.5232 20.4476 16.3609 19.0051 17.6255Z" fill="#F79E1B"/>
</svg>
