<svg width="38" height="26" viewBox="0 0 38 26" fill="none" xmlns="http://www.w3.org/2000/svg">
<path fill-rule="evenodd" clip-rule="evenodd" d="M20.3634 9.8744L18.7759 13.4742H18.5995V9.0542H16.3064V16.4816H18.2467C18.7759 16.4816 19.2169 16.1626 19.4374 15.7069L21.0249 12.1072H21.2013V16.4816H23.4944V9.0542H21.5541C21.0249 9.0542 20.5839 9.37317 20.3634 9.8744Z" fill="#24A23F"/>
<path fill-rule="evenodd" clip-rule="evenodd" d="M11.8084 10.0567L10.8382 13.4742H10.6619L9.69169 10.0567C9.5153 9.4643 9.03021 9.09977 8.45693 9.09977H6.16382V16.5271H8.45693V12.1527H8.63333L9.95628 16.5271H11.5879L12.9109 12.1527H13.0873V16.5271H15.3804V9.0542H13.0873C12.4699 9.0542 11.9407 9.4643 11.8084 10.0567Z" fill="#24A23F"/>
<path fill-rule="evenodd" clip-rule="evenodd" d="M24.4646 12.426V16.4815H26.7577V14.112H29.2272C30.2856 14.112 31.2117 13.4285 31.5203 12.426H24.4646Z" fill="#24A23F"/>
<path fill-rule="evenodd" clip-rule="evenodd" d="M24.6411 9.00854C24.9287 10.6246 26.2972 11.8493 27.944 11.8493H31.621C31.6507 11.6962 31.6668 11.5379 31.6668 11.3757C31.6668 10.0685 30.641 9.00854 29.376 9.00854H24.6411Z" fill="#4A90E2"/>
</svg>
