<svg width="14" height="14" viewBox="0 0 14 14" fill="none" xmlns="http://www.w3.org/2000/svg">
<path d="M12.8744 3.86875L9.69438 0.68875C9.10938 0.10375 8.15687 0.10375 7.57187 0.68875L4.96187 3.29125C4.81188 3.44125 4.42188 3.60625 4.20438 3.60625L1.40688 3.63625C0.679375 3.64375 0.424375 4.07125 0.349375 4.25875C0.274375 4.44625 0.154375 4.93375 0.664375 5.45125L3.85188 8.63875L0.469375 12.0213C0.176875 12.3138 0.176875 12.7863 0.469375 13.0788C0.619375 13.2288 0.806875 13.2963 1.00188 13.2963C1.19688 13.2963 1.38438 13.2213 1.53438 13.0788L4.91687 9.69625L8.10437 12.8838C8.41187 13.1913 8.70437 13.2738 8.93687 13.2738C9.09437 13.2738 9.22188 13.2363 9.29688 13.2063C9.48438 13.1313 9.91937 12.8763 9.92687 12.1413L9.95687 9.34375C9.95687 9.12625 10.1219 8.73625 10.2719 8.58625L12.8744 5.98375C13.4519 5.39875 13.4519 4.45375 12.8744 3.86875ZM9.20687 7.52875C8.77187 7.96375 8.45687 8.72125 8.44938 9.32875L8.43437 11.0913L2.46438 5.12125L4.22688 5.10625C4.83438 5.09875 5.59188 4.78375 6.02688 4.34875L8.62937 1.74625L11.8094 4.92625L9.20687 7.52875Z" fill="#6D92F0"/>
</svg>
