<svg width="39" height="26" viewBox="0 0 39 26" fill="none" xmlns="http://www.w3.org/2000/svg">
<path d="M25.2482 8.50147L24.9276 10.3559C23.9656 9.8258 21.7764 9.70039 21.7764 10.6764C21.7764 11.0643 22.2717 11.331 22.8687 11.6525C23.7742 12.14 24.9135 12.7535 24.9135 14.1064C24.9135 16.2678 22.599 17.0625 21.0652 17.0625C19.5312 17.0625 18.5277 16.5747 18.5277 16.5747L18.8621 14.6363C19.7822 15.3751 22.5709 15.5843 22.5709 14.4131C22.5709 13.9211 22.0221 13.6308 21.3856 13.2943C20.5072 12.8298 19.4619 12.2769 19.4619 10.9834C19.4619 8.61279 22.1108 8.125 23.2263 8.125C24.2583 8.125 25.2482 8.50147 25.2482 8.50147Z" fill="#20347D"/>
<path d="M10.8601 14.2179L13.0034 8.27944H15.4228L11.8463 16.9137H9.50414L7.55114 9.41276C6.28362 8.65082 5.19995 8.4254 5.19995 8.4254L5.24129 8.27944H8.78401C9.75912 8.27944 9.85035 9.05708 9.85035 9.05708L10.607 12.9395L10.8601 14.2179Z" fill="#20347D"/>
<path d="M14.8945 16.9137H17.1425L18.5477 8.27944H16.2995L14.8945 16.9137Z" fill="#20347D"/>
<path fill-rule="evenodd" clip-rule="evenodd" d="M30.6847 16.9137H32.7488L30.9491 8.27944H29.1418C28.3071 8.27944 28.1041 8.9229 28.1041 8.9229L24.7517 16.9137H27.0946L27.5635 15.6314H30.4211L30.6847 16.9137ZM29.3924 10.6281L28.2111 13.8595H30.0569L29.3924 10.6281Z" fill="#20347D"/>
</svg>
